<svg xmlns="http://www.w3.org/2000/svg" width="848" height="490" viewBox="0 0 340 196" font-family="Arial, sans-serif">
  <defs>
    <marker id="ah" viewBox="0 0 8 6" refX="8" refY="3"
      markerWidth="4" markerHeight="3" orient="auto">
      <path d="M0.5,0.5 L7,3 L0.5,5.5" fill="none" stroke="#94A3B8"
        stroke-width="1.2" stroke-linejoin="round" stroke-linecap="round"/>
    </marker>
    <filter id="shadow" x="-6%" y="-8%" width="112%" height="128%">
      <feDropShadow dx="0" dy="0.5" stdDeviation="0.8"
        flood-color="#000" flood-opacity="0.05"/>
    </filter>
  </defs>
  <rect width="340" height="196" fill="#F8F9FB" rx="3"/>
  <text x="170" y="11" text-anchor="middle" font-size="6" font-weight="700" fill="#1E293B">BIL Vault Architecture</text>
  <rect x="95" y="16" width="150" height="10" rx="3" fill="#fff" stroke="#E2E5EA" stroke-width="0.4"/>
  <rect x="100" y="18.5" width="5" height="5" rx="2.5" fill="#fff" stroke="#E2E5EA" stroke-width="0.4"/>
  <text x="108" y="22.5" font-size="3.5" fill="#1E293B">Actor</text>
  <rect x="140" y="18.5" width="5" height="5" rx="1.5" fill="#fff" stroke="#E2E5EA" stroke-width="0.4"/>
  <rect x="141" y="19.5" width="0.8" height="3" rx="0.4" fill="#3B82F6"/>
  <text x="148" y="22.5" font-size="3.5" fill="#1E293B">Protocol</text>
  <rect x="188" y="18.5" width="5" height="5" rx="1.5" fill="#fff" stroke="#E2E5EA" stroke-width="0.4"/>
  <rect x="189" y="19.5" width="0.8" height="3" rx="0.4" fill="#F59E0B"/>
  <text x="196" y="22.5" font-size="3.5" fill="#1E293B">External</text>
  <rect x="78.4" y="84.0" width="180.4" height="40.0" rx="5" fill="#EDEEF2"/>
  <text x="255.8" y="89.0" text-anchor="end" font-size="3.5" fill="#94A3B8" font-weight="500">BIL System</text>
  <path d="M76.0,46.0 C76.0,70.0 123.6,70.0 123.6,94.0" fill="none" stroke="#94A3B8" stroke-width="0.5" marker-end="url(#ah)"/>
  <path d="M179.2,46.0 C179.2,70.0 123.6,70.0 123.6,94.0" fill="none" stroke="#94A3B8" stroke-width="0.5" marker-end="url(#ah)"/>
  <path d="M264.4,46.0 C264.4,70.0 123.6,70.0 123.6,94.0" fill="none" stroke="#94A3B8" stroke-width="0.5" marker-end="url(#ah)"/>
  <path d="M180.8,112.0 C174.2,126.0 165.4,126.0 158.8,114.0" fill="none" stroke="#94A3B8" stroke-width="0.5" marker-end="url(#ah)"/>
  <path d="M123.6,114.0 C123.6,135.0 97.5,135.0 97.5,156.0" fill="none" stroke="#94A3B8" stroke-width="0.5" marker-end="url(#ah)"/>
  <path d="M123.6,114.0 C123.6,135.0 190.7,135.0 190.7,156.0" fill="none" stroke="#94A3B8" stroke-width="0.5" marker-end="url(#ah)"/>
  <path d="M138.7,174.0 C169.9,188.0 211.5,188.0 242.7,176.0" fill="none" stroke="#94A3B8" stroke-width="0.5" marker-end="url(#ah)"/>
  <path d="M138.7,174.0 C145.3,192.0 154.1,192.0 160.7,176.0" fill="none" stroke="#94A3B8" stroke-width="0.5" marker-end="url(#ah)"/>
  <g filter="url(#shadow)">
    <rect x="30.0" y="32.0" width="92.0" height="14" rx="7" fill="#fff" stroke="#E2E5EA" stroke-width="0.5"/>
    <text x="76.0" y="40.8" text-anchor="middle" font-size="4.8" font-weight="600" fill="#1E293B">User</text>
  </g>
  <g filter="url(#shadow)">
    <rect x="144.0" y="32.0" width="70.4" height="14" rx="7" fill="#fff" stroke="#E2E5EA" stroke-width="0.5"/>
    <text x="179.2" y="40.8" text-anchor="middle" font-size="4.8" font-weight="600" fill="#1E293B">Keeper Bot</text>
  </g>
  <g filter="url(#shadow)">
    <rect x="236.4" y="32.0" width="56.0" height="14" rx="7" fill="#fff" stroke="#E2E5EA" stroke-width="0.5"/>
    <text x="264.4" y="40.8" text-anchor="middle" font-size="4.8" font-weight="600" fill="#1E293B">Admin</text>
  </g>
  <g filter="url(#shadow)">
    <rect x="88.4" y="94.0" width="70.4" height="20" rx="3" fill="#fff" stroke="#E2E5EA" stroke-width="0.5"/>
    <rect x="91.4" y="97.0" width="1.4" height="14" rx="0.6" fill="#3B82F6"/>
    <text x="123.6" y="103.5" text-anchor="middle" font-size="4.8" font-weight="600" fill="#1E293B">BILVault</text>
    <text x="123.6" y="108.5" text-anchor="middle" font-size="3.5" fill="#64748B">Vault + ERC-20</text>
  </g>
  <g filter="url(#shadow)">
    <rect x="180.8" y="94.0" width="68.0" height="20" rx="3" fill="#fff" stroke="#E2E5EA" stroke-width="0.5"/>
    <rect x="183.8" y="97.0" width="1.4" height="14" rx="0.6" fill="#3B82F6"/>
    <text x="214.8" y="103.5" text-anchor="middle" font-size="4.8" font-weight="600" fill="#1E293B">BILOracle</text>
    <text x="214.8" y="108.5" text-anchor="middle" font-size="3.5" fill="#64748B">Price Feed</text>
  </g>
  <g filter="url(#shadow)">
    <rect x="56.3" y="156.0" width="82.4" height="20" rx="3" fill="#fff" stroke="#E2E5EA" stroke-width="0.5"/>
    <rect x="59.3" y="159.0" width="1.4" height="14" rx="0.6" fill="#F59E0B"/>
    <text x="97.5" y="165.5" text-anchor="middle" font-size="4.8" font-weight="600" fill="#1E293B">DecentralPool</text>
    <text x="97.5" y="170.5" text-anchor="middle" font-size="3.5" fill="#64748B">Lending Pool</text>
  </g>
  <g filter="url(#shadow)">
    <rect x="242.7" y="156.0" width="66.8" height="20" rx="3" fill="#fff" stroke="#E2E5EA" stroke-width="0.5"/>
    <rect x="245.7" y="159.0" width="1.4" height="14" rx="0.6" fill="#F59E0B"/>
    <text x="276.1" y="165.5" text-anchor="middle" font-size="4.8" font-weight="600" fill="#1E293B">PoolToken</text>
    <text x="276.1" y="170.5" text-anchor="middle" font-size="3.5" fill="#64748B">NFT Positions</text>
  </g>
  <g filter="url(#shadow)">
    <rect x="160.7" y="156.0" width="60.0" height="20" rx="3" fill="#fff" stroke="#E2E5EA" stroke-width="0.5"/>
    <rect x="163.7" y="159.0" width="1.4" height="14" rx="0.6" fill="#F59E0B"/>
    <text x="190.7" y="165.5" text-anchor="middle" font-size="4.8" font-weight="600" fill="#1E293B">HOLLAR</text>
    <text x="190.7" y="170.5" text-anchor="middle" font-size="3.5" fill="#64748B">Stablecoin</text>
  </g>
  <rect x="78.6" y="65.0" width="42.4" height="6.0" rx="1" fill="#F8F9FB"/>
  <text x="99.8" y="70.0" font-size="4" fill="#1E293B" font-weight="500" text-anchor="middle">deposit / redeem</text>
  <rect x="132.6" y="65.0" width="37.6" height="6.0" rx="1" fill="#F8F9FB"/>
  <text x="151.4" y="70.0" font-size="4" fill="#1E293B" font-weight="500" text-anchor="middle">poke lifecycle</text>
  <rect x="179.6" y="63.0" width="44.8" height="6.0" rx="1" fill="#F8F9FB"/>
  <text x="202.0" y="68.0" font-size="4" fill="#1E293B" font-weight="500" text-anchor="middle">configure &amp; pause</text>
  <rect x="146.2" y="125.0" width="47.2" height="6.0" rx="1" fill="#F8F9FB"/>
  <text x="169.8" y="130.0" font-size="4" fill="#1E293B" font-weight="500" text-anchor="middle">read exchange rate</text>
  <rect x="87.0" y="130.0" width="47.2" height="6.0" rx="1" fill="#F8F9FB"/>
  <text x="110.6" y="135.0" font-size="4" fill="#1E293B" font-weight="500" text-anchor="middle">deposit / withdraw</text>
  <rect x="137.2" y="134.0" width="40.0" height="6.0" rx="1" fill="#F8F9FB"/>
  <text x="157.2" y="139.0" font-size="4" fill="#1E293B" font-weight="500" text-anchor="middle">token transfers</text>
  <rect x="170.7" y="187.0" width="40.0" height="6.0" rx="1" fill="#F8F9FB"/>
  <text x="190.7" y="192.0" font-size="4" fill="#1E293B" font-weight="500" text-anchor="middle">mint / burn NFT</text>
  <rect x="132.1" y="191.0" width="35.2" height="6.0" rx="1" fill="#F8F9FB"/>
  <text x="149.7" y="196.0" font-size="4" fill="#1E293B" font-weight="500" text-anchor="middle">yield payouts</text>
</svg>